<svg xmlns="http://www.w3.org/2000/svg" xmlns:xlink="http://www.w3.org/1999/xlink" width="2000" zoomAndPan="magnify" viewBox="0 0 1500 1499.999933" height="2000" preserveAspectRatio="xMidYMid meet" version="1.0"><defs><g/><clipPath id="b08edcdef4"><rect x="0" width="830" y="0" height="460"/></clipPath></defs><rect x="-150" width="1800" fill="#ffffff" y="-149.999993" height="1799.99992" fill-opacity="1"/><rect x="-150" width="1800" fill="#ffffff" y="-149.999993" height="1799.99992" fill-opacity="1"/><g transform="matrix(1, 0, 0, 1, 392, 484)"><g clip-path="url(#b08edcdef4)"><g fill="#303030" fill-opacity="1"><g transform="translate(1.365622, 364.034553)"><g><path d="M 92.171875 -214.421875 L 92.171875 -144.828125 L 214.046875 -144.828125 L 214.046875 -95.921875 L 92.171875 -95.921875 L 92.171875 0 L 31.21875 0 L 31.21875 -263.328125 L 230.234375 -263.328125 L 230.234375 -214.421875 Z M 92.171875 -214.421875 "/></g></g></g><g fill="#303030" fill-opacity="1"><g transform="translate(355.350524, 364.034553)"><g><path d="M 270.859375 0 L 270.484375 -158 L 192.984375 -27.84375 L 165.515625 -27.84375 L 88.40625 -154.609375 L 88.40625 0 L 31.21875 0 L 31.21875 -263.328125 L 81.625 -263.328125 L 180.1875 -99.6875 L 277.25 -263.328125 L 327.28125 -263.328125 L 328.03125 0 Z M 270.859375 0 "/></g></g></g></g></g></svg>