<svg xmlns="http://www.w3.org/2000/svg" xmlns:xlink="http://www.w3.org/1999/xlink" width="2000" zoomAndPan="magnify" viewBox="0 0 1500 1499.999933" height="2000" preserveAspectRatio="xMidYMid meet" version="1.0"><defs><g/><clipPath id="3e27bfe9ac"><rect x="0" width="932" y="0" height="516"/></clipPath></defs><g transform="matrix(1, 0, 0, 1, 348, 491)"><g clip-path="url(#3e27bfe9ac)"><g fill="#303030" fill-opacity="1"><g transform="translate(1.436395, 408.697674)"><g><path d="M 103.515625 -240.828125 L 103.515625 -162.671875 L 240.40625 -162.671875 L 240.40625 -107.734375 L 103.515625 -107.734375 L 103.515625 0 L 35.0625 0 L 35.0625 -295.765625 L 258.578125 -295.765625 L 258.578125 -240.828125 Z M 103.515625 -240.828125 "/></g></g></g><g fill="#303030" fill-opacity="1"><g transform="translate(399.024263, 408.697674)"><g><path d="M 304.21875 0 L 303.78125 -177.453125 L 216.75 -31.265625 L 185.90625 -31.265625 L 99.296875 -173.65625 L 99.296875 0 L 35.0625 0 L 35.0625 -295.765625 L 91.6875 -295.765625 L 202.390625 -111.96875 L 311.390625 -295.765625 L 367.59375 -295.765625 L 368.4375 0 Z M 304.21875 0 "/></g></g></g></g></g></svg>