<svg xmlns="http://www.w3.org/2000/svg" xmlns:xlink="http://www.w3.org/1999/xlink" width="2000" zoomAndPan="magnify" viewBox="0 0 1500 1499.999933" height="2000" preserveAspectRatio="xMidYMid meet" version="1.0"><defs><g/><clipPath id="f938e8bb2e"><rect x="0" width="762" y="0" height="665"/></clipPath></defs><g transform="matrix(1, 0, 0, 1, 347, 417)"><g clip-path="url(#f938e8bb2e)"><g fill="#303030" fill-opacity="1"><g transform="translate(1.08743, 526.700972)"><g><path d="M 133.328125 -310.203125 L 133.328125 -209.53125 L 309.65625 -209.53125 L 309.65625 -138.78125 L 133.328125 -138.78125 L 133.328125 0 L 45.171875 0 L 45.171875 -380.953125 L 333.0625 -380.953125 L 333.0625 -310.203125 Z M 133.328125 -310.203125 "/></g></g></g><g fill="#303030" fill-opacity="1"><g transform="translate(285.165682, 526.700972)"><g><path d="M 391.84375 0 L 391.296875 -228.578125 L 279.1875 -40.265625 L 239.453125 -40.265625 L 127.890625 -223.671875 L 127.890625 0 L 45.171875 0 L 45.171875 -380.953125 L 118.09375 -380.953125 L 260.6875 -144.21875 L 401.09375 -380.953125 L 473.46875 -380.953125 L 474.5625 0 Z M 391.84375 0 "/></g></g></g></g></g></svg>